<svg width="1932" height="512" viewBox="0 0 1932 512" fill="none" xmlns="http://www.w3.org/2000/svg">
<g clip-path="url(#clip0_30:10)">
<path fill-rule="evenodd" clip-rule="evenodd" d="M97.6015 97.6047C76.7988 118.405 60.297 143.1 49.0385 170.278C37.78 197.457 31.9854 226.587 31.9854 256.005C31.9854 285.423 37.78 314.553 49.0385 341.731C60.297 368.91 76.7988 393.604 97.6015 414.405C100.516 417.422 102.129 421.464 102.092 425.659C102.056 429.854 100.373 433.867 97.4066 436.834C94.4401 439.8 90.4271 441.483 86.2319 441.519C82.0368 441.556 77.9952 439.943 74.9775 437.029C51.2043 413.257 32.3463 385.035 19.4803 353.975C6.61426 322.914 -0.0078125 289.624 -0.0078125 256.005C-0.0078125 222.385 6.61426 189.095 19.4803 158.035C32.3463 126.974 51.2043 98.7527 74.9775 74.9807C77.9952 72.0662 82.0368 70.4535 86.2319 70.4899C90.4271 70.5264 94.4401 72.2091 97.4066 75.1756C100.373 78.1421 102.056 82.1551 102.092 86.3503C102.129 90.5454 100.516 94.5871 97.6015 97.6047ZM165.506 165.509C141.509 189.512 128.029 222.064 128.029 256.005C128.029 289.946 141.509 322.497 165.506 346.501C168.51 349.505 170.198 353.58 170.198 357.829C170.198 362.078 168.51 366.152 165.506 369.157C162.501 372.161 158.426 373.849 154.178 373.849C149.929 373.849 145.854 372.161 142.85 369.157C127.988 354.299 116.198 336.659 108.155 317.244C100.112 297.829 95.9717 277.02 95.9717 256.005C95.9717 234.99 100.112 214.18 108.155 194.766C116.198 175.351 127.988 157.711 142.85 142.853C145.854 139.848 149.929 138.16 154.178 138.16C158.426 138.16 162.501 139.848 165.506 142.853C168.51 145.857 170.198 149.932 170.198 154.181C170.198 158.43 168.51 162.504 165.506 165.509V165.509ZM346.498 142.853C347.984 141.363 349.749 140.181 351.693 139.374C353.637 138.567 355.721 138.152 357.826 138.152C359.93 138.152 362.014 138.567 363.958 139.374C365.902 140.181 367.667 141.363 369.154 142.853C384.015 157.711 395.805 175.351 403.848 194.766C411.891 214.18 416.031 234.99 416.031 256.005C416.031 277.02 411.891 297.829 403.848 317.244C395.805 336.659 384.015 354.299 369.154 369.157C367.666 370.644 365.9 371.824 363.956 372.629C362.013 373.435 359.929 373.849 357.826 373.849C355.722 373.849 353.639 373.435 351.695 372.629C349.751 371.824 347.985 370.644 346.498 369.157C345.01 367.669 343.83 365.903 343.025 363.959C342.22 362.016 341.805 359.933 341.805 357.829C341.805 355.725 342.22 353.642 343.025 351.698C343.83 349.754 345.01 347.988 346.498 346.501C370.494 322.497 383.974 289.946 383.974 256.005C383.974 222.064 370.494 189.512 346.498 165.509C345.008 164.022 343.825 162.257 343.019 160.313C342.212 158.369 341.797 156.285 341.797 154.181C341.797 152.076 342.212 149.992 343.019 148.048C343.825 146.105 345.008 144.339 346.498 142.853ZM414.402 75.0127C417.402 72.0132 421.471 70.3281 425.714 70.3281C429.956 70.3281 434.025 72.0132 437.026 75.0127C485.028 123.021 511.995 188.131 511.995 256.021C511.995 323.911 485.028 389.02 437.026 437.029C434.008 439.943 429.966 441.556 425.771 441.519C421.576 441.483 417.563 439.8 414.596 436.834C411.63 433.867 409.947 429.854 409.911 425.659C409.874 421.464 411.487 417.422 414.402 414.405C435.204 393.604 451.706 368.91 462.965 341.731C474.223 314.553 480.018 285.423 480.018 256.005C480.018 226.587 474.223 197.457 462.965 170.278C451.706 143.1 435.204 118.405 414.402 97.6047C411.402 94.6043 409.717 90.5353 409.717 86.2927C409.717 82.0501 411.402 77.9811 414.402 74.9807V75.0127Z" fill="black"/>
<path d="M320 256C320 272.974 313.257 289.252 301.255 301.255C289.252 313.257 272.974 320 256 320C239.026 320 222.747 313.257 210.745 301.255C198.743 289.252 192 272.974 192 256C192 239.026 198.743 222.747 210.745 210.745C222.747 198.743 239.026 192 256 192C272.974 192 289.252 198.743 301.255 210.745C313.257 222.747 320 239.026 320 256V256Z" fill="black"/>
</g>
<path d="M811.3 157.7C815.3 157.9 818.7 159.4 821.5 162.2C824.3 164.8 825.7 168.1 825.7 172.1V353.6C825.7 357.6 824.3 361 821.5 363.8C818.9 366.6 815.4 368 811 368C806.6 368 803 366.7 800.2 364.1C797.4 361.3 796 357.8 796 353.6V214.7L737.8 302.9C736.4 304.7 734.6 306.2 732.4 307.4C730.4 308.6 728.3 309.1 726.1 308.9C724.1 309.1 722 308.6 719.8 307.4C717.8 306.2 716.1 304.7 714.7 302.9L656.2 212V353.6C656.2 357.8 654.9 361.3 652.3 364.1C649.9 366.7 646.6 368 642.4 368C638.4 368 635.1 366.7 632.5 364.1C630.1 361.3 628.9 357.8 628.9 353.6V172.1C628.9 168.3 630.3 165 633.1 162.2C635.9 159.2 639.4 157.7 643.6 157.7C646 157.7 648.3 158.3 650.5 159.5C652.9 160.7 654.8 162.3 656.2 164.3L727.3 272L799.3 164.3C802.5 159.9 806.5 157.7 811.3 157.7ZM898.98 353.6C898.98 357.6 897.58 361 894.78 363.8C892.18 366.6 888.78 368 884.58 368C880.58 368 877.18 366.6 874.38 363.8C871.78 361 870.48 357.6 870.48 353.6V223.7C870.48 219.7 871.78 216.3 874.38 213.5C877.18 210.7 880.58 209.3 884.58 209.3C888.78 209.3 892.18 210.7 894.78 213.5C897.58 216.3 898.98 219.7 898.98 223.7V353.6ZM884.58 189.5C878.78 189.5 874.58 188.5 871.98 186.5C869.58 184.3 868.38 180.9 868.38 176.3V171.5C868.38 166.7 869.68 163.3 872.28 161.3C875.08 159.3 879.28 158.3 884.88 158.3C890.48 158.3 894.48 159.4 896.88 161.6C899.48 163.6 900.78 166.9 900.78 171.5V176.3C900.78 181.1 899.48 184.5 896.88 186.5C894.28 188.5 890.18 189.5 884.58 189.5ZM930.948 343.4C929.148 340.6 928.248 337.9 928.248 335.3C928.248 331.3 930.348 327.9 934.548 325.1C936.548 323.7 938.848 323 941.448 323C945.048 323 948.348 324.5 951.348 327.5C957.348 334.3 963.748 339.4 970.548 342.8C977.548 346.2 985.848 347.9 995.448 347.9C1003.05 347.7 1009.75 346 1015.55 342.8C1021.35 339.4 1024.25 334 1024.25 326.6C1024.25 319.8 1021.25 314.6 1015.25 311C1009.45 307.4 1000.85 304.1 989.448 301.1C978.248 298.1 968.948 295 961.548 291.8C954.148 288.4 947.848 283.6 942.648 277.4C937.648 271 935.148 262.7 935.148 252.5C935.148 243.5 937.648 235.6 942.648 228.8C947.848 222 954.648 216.7 963.048 212.9C971.648 209.1 980.948 207.2 990.948 207.2C1000.55 207.2 1010.05 209 1019.45 212.6C1029.05 216.2 1036.85 221.7 1042.85 229.1C1045.25 231.9 1046.45 234.8 1046.45 237.8C1046.45 241 1044.85 244.1 1041.65 247.1C1039.65 248.9 1037.15 249.8 1034.15 249.8C1030.55 249.8 1027.65 248.6 1025.45 246.2C1021.25 241.4 1016.05 237.7 1009.85 235.1C1003.85 232.5 997.148 231.2 989.748 231.2C982.148 231.2 975.648 232.8 970.248 236C965.048 239 962.448 244.2 962.448 251.6C962.648 258.6 965.648 263.8 971.448 267.2C977.448 270.6 986.548 273.9 998.748 277.1C1009.35 279.9 1018.15 282.9 1025.15 286.1C1032.15 289.3 1038.05 294.1 1042.85 300.5C1047.65 306.7 1050.05 314.9 1050.05 325.1C1050.05 334.5 1047.35 342.7 1041.95 349.7C1036.55 356.5 1029.45 361.8 1020.65 365.6C1012.05 369.2 1002.85 371 993.048 371C980.448 371 968.748 368.8 957.948 364.4C947.348 360 938.348 353 930.948 343.4ZM1212.76 208.7C1216.96 208.7 1220.36 210.1 1222.96 212.9C1225.76 215.5 1227.16 219 1227.16 223.4V353.6C1227.16 357.6 1225.76 361 1222.96 363.8C1220.36 366.6 1216.96 368 1212.76 368C1208.56 368 1205.16 366.7 1202.56 364.1C1199.96 361.3 1198.66 357.8 1198.66 353.6V345.8C1193.46 352.8 1186.36 358.8 1177.36 363.8C1168.36 368.6 1158.66 371 1148.26 371C1134.66 371 1122.26 367.5 1111.06 360.5C1100.06 353.5 1091.36 343.8 1084.96 331.4C1078.76 318.8 1075.66 304.7 1075.66 289.1C1075.66 273.5 1078.76 259.5 1084.96 247.1C1091.36 234.5 1100.06 224.7 1111.06 217.7C1122.06 210.7 1134.16 207.2 1147.36 207.2C1157.96 207.2 1167.76 209.4 1176.76 213.8C1185.96 218.2 1193.26 223.8 1198.66 230.6V223.4C1198.66 219.2 1199.96 215.7 1202.56 212.9C1205.16 210.1 1208.56 208.7 1212.76 208.7ZM1151.56 344.6C1160.96 344.6 1169.26 342.2 1176.46 337.4C1183.86 332.6 1189.56 326 1193.56 317.6C1197.76 309.2 1199.86 299.7 1199.86 289.1C1199.86 278.7 1197.76 269.3 1193.56 260.9C1189.56 252.5 1183.86 245.9 1176.46 241.1C1169.26 236.1 1160.96 233.6 1151.56 233.6C1142.16 233.6 1133.76 236 1126.36 240.8C1119.16 245.6 1113.46 252.2 1109.26 260.6C1105.26 269 1103.26 278.5 1103.26 289.1C1103.26 299.7 1105.26 309.2 1109.26 317.6C1113.46 326 1119.16 332.6 1126.36 337.4C1133.76 342.2 1142.16 344.6 1151.56 344.6ZM1361.94 158C1381.14 158 1397.24 162.8 1410.24 172.4C1423.44 181.8 1433.24 194.5 1439.64 210.5C1446.24 226.3 1449.54 243.8 1449.54 263C1449.54 282.8 1446.24 300.6 1439.64 316.4C1433.24 332.2 1423.44 344.8 1410.24 354.2C1397.24 363.4 1381.14 368 1361.94 368H1285.44C1282.84 368 1280.64 367.2 1278.84 365.6C1277.24 363.8 1276.44 361.6 1276.44 359V167C1276.44 164.4 1277.24 162.3 1278.84 160.7C1280.64 158.9 1282.84 158 1285.44 158H1361.94ZM1358.94 350.3C1382.94 350.3 1400.84 342.3 1412.64 326.3C1424.44 310.1 1430.34 289 1430.34 263C1430.34 246.8 1427.84 232.2 1422.84 219.2C1417.84 206 1409.94 195.5 1399.14 187.7C1388.54 179.7 1375.14 175.7 1358.94 175.7H1295.34V350.3H1358.94ZM1559.26 211.1C1563.26 211.1 1566.86 211.9 1570.06 213.5C1573.26 215.1 1574.86 217.5 1574.86 220.7C1574.86 223.5 1574.06 225.8 1572.46 227.6C1570.86 229.2 1568.96 230 1566.76 230C1565.76 230 1563.76 229.5 1560.76 228.5C1557.96 227.5 1555.26 227 1552.66 227C1545.26 227 1537.86 229.9 1530.46 235.7C1523.26 241.3 1517.26 248.6 1512.46 257.6C1507.86 266.6 1505.56 275.7 1505.56 284.9V359C1505.56 361.6 1504.66 363.8 1502.86 365.6C1501.26 367.2 1499.16 368 1496.56 368C1493.96 368 1491.76 367.2 1489.96 365.6C1488.36 363.8 1487.56 361.6 1487.56 359V224.6C1487.56 222 1488.36 219.9 1489.96 218.3C1491.76 216.5 1493.96 215.6 1496.56 215.6C1499.16 215.6 1501.26 216.5 1502.86 218.3C1504.66 219.9 1505.56 222 1505.56 224.6V251C1510.16 239.6 1517.06 230.2 1526.26 222.8C1535.66 215.2 1546.66 211.3 1559.26 211.1ZM1737.85 291.2C1737.85 306.2 1734.55 319.8 1727.95 332C1721.35 344.2 1712.25 353.8 1700.65 360.8C1689.05 367.6 1676.15 371 1661.95 371C1647.75 371 1634.85 367.6 1623.25 360.8C1611.65 353.8 1602.55 344.2 1595.95 332C1589.35 319.8 1586.05 306.2 1586.05 291.2C1586.05 276.2 1589.35 262.6 1595.95 250.4C1602.55 238.2 1611.65 228.6 1623.25 221.6C1634.85 214.6 1647.75 211.1 1661.95 211.1C1676.15 211.1 1689.05 214.6 1700.65 221.6C1712.25 228.6 1721.35 238.2 1727.95 250.4C1734.55 262.6 1737.85 276.2 1737.85 291.2ZM1719.85 291.2C1719.85 279.2 1717.35 268.4 1712.35 258.8C1707.35 249.2 1700.35 241.7 1691.35 236.3C1682.55 230.7 1672.75 227.9 1661.95 227.9C1651.15 227.9 1641.35 230.7 1632.55 236.3C1623.75 241.7 1616.75 249.2 1611.55 258.8C1606.55 268.4 1604.05 279.2 1604.05 291.2C1604.05 303 1606.55 313.7 1611.55 323.3C1616.75 332.9 1623.75 340.5 1632.55 346.1C1641.35 351.5 1651.15 354.2 1661.95 354.2C1672.75 354.2 1682.55 351.5 1691.35 346.1C1700.35 340.7 1707.35 333.2 1712.35 323.6C1717.35 314 1719.85 303.2 1719.85 291.2ZM1847.57 213.5C1860.77 213.5 1872.77 216.9 1883.57 223.7C1894.37 230.3 1902.77 239.6 1908.77 251.6C1914.97 263.4 1918.07 276.7 1918.07 291.5C1918.07 306.5 1914.97 320 1908.77 332C1902.77 343.8 1894.37 353.1 1883.57 359.9C1872.97 366.7 1861.07 370.1 1847.87 370.1C1836.27 370.1 1825.57 367.4 1815.77 362C1806.17 356.4 1798.47 349 1792.67 339.8V419C1792.67 421.6 1791.77 423.7 1789.97 425.3C1788.37 427.1 1786.27 428 1783.67 428C1781.07 428 1778.87 427.1 1777.07 425.3C1775.47 423.7 1774.67 421.6 1774.67 419V223.4C1774.67 220.8 1775.47 218.6 1777.07 216.8C1778.87 215 1781.07 214.1 1783.67 214.1C1786.27 214.1 1788.37 215 1789.97 216.8C1791.77 218.6 1792.67 220.8 1792.67 223.4V243.8C1797.87 234.4 1805.37 227 1815.17 221.6C1824.97 216.2 1835.77 213.5 1847.57 213.5ZM1846.07 353.3C1856.47 353.3 1865.77 350.7 1873.97 345.5C1882.37 340.1 1888.87 332.7 1893.47 323.3C1898.27 313.9 1900.67 303.3 1900.67 291.5C1900.67 279.9 1898.27 269.5 1893.47 260.3C1888.87 250.9 1882.37 243.6 1873.97 238.4C1865.77 233 1856.47 230.3 1846.07 230.3C1835.47 230.3 1825.97 232.9 1817.57 238.1C1809.17 243.3 1802.67 250.6 1798.07 260C1793.47 269.2 1791.17 279.7 1791.17 291.5C1791.17 303.3 1793.47 313.9 1798.07 323.3C1802.67 332.7 1809.17 340.1 1817.57 345.5C1825.97 350.7 1835.47 353.3 1846.07 353.3Z" fill="black"/>
<defs>
<clipPath id="clip0_30:10">
<rect width="512" height="512" fill="white"/>
</clipPath>
</defs>
</svg>
